<?xml version="1.0" encoding="UTF-8"?>
<svg width="40px" height="40px" viewBox="0 0 40 40" version="1.1" xmlns="http://www.w3.org/2000/svg" xmlns:xlink="http://www.w3.org/1999/xlink">
    <defs>
        <linearGradient x1="25.2385813%" y1="92.120798%" x2="72.3800941%" y2="9.1313826%" id="linearGradient-1">
            <stop stop-color="#3F5DBB" offset="0%"></stop>
            <stop stop-color="#76AAEC" offset="100%"></stop>
        </linearGradient>
    </defs>
    <g id="问答" stroke="none" stroke-width="1" fill="none" fill-rule="evenodd">
        <g transform="translate(-697.000000, -435.000000)" id="编组-25">
            <g transform="translate(681.000000, 302.000000)">
                <g id="机器人备份-2" transform="translate(16.000000, 133.000000)">
                    <circle id="椭圆形" fill="url(#linearGradient-1)" cx="20" cy="20" r="18"></circle>
                    <g id="编组" transform="translate(5.000000, 7.000000)" fill="#FFFFFF" fill-rule="nonzero">
                        <path d="M14.9966518,0 C16.8448661,0 18.6428571,0.358318997 20.3337054,1.06832145 C21.9642857,1.75178176 23.4308036,2.73384124 24.6897321,3.98132219 C25.9486607,5.22880315 26.9397321,6.68198575 27.6294643,8.30105677 C28.1618304,9.55185549 28.5,10.8590563 28.6372768,12.2027525 L28.6372768,12.2027525 L29.1629464,12.2027525 C29.625,12.2027525 30,12.5743426 30,13.0388302 L30,13.0388302 L30,15.6266896 C30,16.0845417 29.6216518,16.4561317 29.1629464,16.4561317 L29.1629464,16.4561317 L28.1584821,16.4561317 C27.6964286,16.4561317 27.3214286,16.0845417 27.3214286,15.6266896 L27.3214286,15.6266896 L27.3214286,13.0388302 C27.3214286,12.8032686 27.421875,12.5909314 27.5825893,12.4383141 C27.4654018,11.1576554 27.1506696,9.91017449 26.6417411,8.72241337 C26.0055804,7.23273532 25.0948661,5.89235684 23.9330357,4.74109118 C22.7712054,3.58982551 21.421875,2.68739248 19.9151786,2.05701647 C18.3549107,1.40341607 16.7008929,1.07163922 14.9933036,1.07163922 C13.2857143,1.07163922 11.6283482,1.40341607 10.0714286,2.05701647 C8.56808036,2.68739248 7.21540179,3.58982551 6.05357143,4.74109118 C5.04241071,5.74305726 4.21875,6.89100516 3.60267857,8.15507496 L3.60267857,8.15507496 L4.33258929,8.86839518 C6.15401786,4.86716638 10.2120536,2.08355861 14.9263393,2.08355861 C21.3448661,2.08355861 26.5479911,7.23937085 26.5479911,13.5995331 C26.5479911,18.1216515 23.9129464,22.0333006 20.0859375,23.9177931 C19.9720982,23.9741951 13.5837054,27 13.5837054,27 L13.5837054,27 L14.4140625,25.1022364 C9.72991071,24.8998525 5.76897321,21.9536741 4.12165179,17.8462767 C5.14285714,18.9577292 6.34821429,19.9032932 7.68415179,20.6298845 C9.31808036,21.5190464 11.1194196,22.0631605 12.9743304,22.2390022 C13.1484375,22.5840501 13.5133929,22.8229295 13.9285714,22.8229295 L13.9285714,22.8229295 L16.0747768,22.8229295 C16.6640625,22.8229295 17.1462054,22.3451708 17.1462054,21.7612435 L17.1462054,21.7612435 C17.1462054,21.1739985 16.6640625,20.6962399 16.0747768,20.6962399 L16.0747768,20.6962399 L13.9285714,20.6962399 C13.5602679,20.6962399 13.2287946,20.8886704 13.0379464,21.1739985 C11.34375,21.0081101 9.69308036,20.5071271 8.19977679,19.6942738 C6.29464286,18.6558122 4.67745536,17.139592 3.52901786,15.3115016 L3.52901786,15.3115016 L3.40513393,15.1157533 C3.33816964,14.618088 3.3046875,14.1104694 3.3046875,13.5928975 C3.3046875,12.7866798 3.38839286,11.9970509 3.54910714,11.2372819 L3.54910714,11.2372819 L2.51116071,11.5889653 C2.46428571,11.8643401 2.43080357,12.1430327 2.40401786,12.4217252 C2.57142857,12.5710248 2.67857143,12.7899975 2.67857143,13.0321946 L2.67857143,13.0321946 L2.67857143,15.6200541 C2.67857143,16.0779061 2.30022321,16.4494962 1.84151786,16.4494962 L1.84151786,16.4494962 L0.837053571,16.4494962 C0.375,16.4494962 0,16.0779061 0,15.6200541 L0,15.6200541 L0,13.0321946 C0,12.5743426 0.375,12.2027525 0.837053571,12.2027525 L0.837053571,12.2027525 L1.35267857,12.2027525 C1.36272321,12.1264438 1.36941964,12.0501352 1.37946429,11.9738265 L1.37946429,11.9738265 L0.763392857,12.1828459 L0.448660714,10.0860162 L1.74441964,10.0860162 C1.84151786,9.72769722 1.95200893,9.37269599 2.07924107,9.02101253 L2.07924107,9.02101253 L0.696428571,8.35745884 L2.00223214,6.57913492 L2.80580357,7.36212829 C3.45200893,6.1179651 4.2890625,4.98328828 5.30022321,3.98132219 C6.55915179,2.73384124 8.02566964,1.75178176 9.65959821,1.06832145 C11.3504464,0.358318997 13.1450893,0 14.9966518,0 Z M14.9263393,8.36741214 C9.16741071,8.36741214 4.49665179,10.4012042 4.49665179,12.912755 C4.49665179,15.4243057 9.16741071,17.4580978 14.9263393,17.4580978 C20.6852679,17.4580978 25.3560268,15.4243057 25.3560268,12.912755 C25.3560268,10.4012042 20.6852679,8.36741214 14.9263393,8.36741214 Z M8.84155275,11.395829 C9.42245713,11.1178425 10.9314336,11.7415303 12.0416828,12.2832476 C12.4747831,12.4935195 12.3922878,13.1599745 11.9213772,13.2526366 L11.9213772,13.2526366 L8.53219539,13.9262194 C8.20565151,13.9903702 7.90660606,13.7123836 7.9444164,13.3702463 C8.01659978,12.6859718 8.22627533,11.6916352 8.84155275,11.395829 Z M18.8406701,12.2796837 C19.9543567,11.7379663 21.4598958,11.1107146 22.0408002,11.3922651 C22.6526403,11.6880713 22.8657532,12.6824078 22.9379365,13.3666824 C22.9757469,13.7123836 22.6767014,13.9903702 22.3501576,13.9262194 L22.3501576,13.9262194 L18.9609758,13.2526366 C18.4900651,13.1564105 18.4075698,12.4935195 18.8406701,12.2796837 Z M3.04352679,9.48550012 C2.9765625,9.68456623 2.91294643,9.88363234 2.85267857,10.0826985 L2.85267857,10.0826985 L3.85714286,10.0826985 L3.91741071,9.90353895 Z" id="形状结合"></path>
                    </g>
                </g>
            </g>
        </g>
    </g>
</svg>